<svg
  width="24"
  height="24"
  viewBox="0 0 24 24"
  fill="none"
  xmlns="http://www.w3.org/2000/svg"
>
  <path
    d="M8.54492 9.25084C8.17626 9.59782 7.59613 9.58024 7.24916 9.21158C6.90218 8.84292 6.91976 8.26278 7.28842 7.91581L11.1843 4.24914C11.5372 3.91694 12.0878 3.91694 12.4408 4.24914L16.3366 7.91581C16.7052 8.26278 16.7228 8.84292 16.3759 9.21158C16.0289 9.58024 15.4487 9.59782 15.0801 9.25084L11.8125 6.17547L8.54492 9.25084ZM8.54492 15.2491L11.8125 18.3245L15.0801 15.2491C15.4487 14.9022 16.0289 14.9198 16.3759 15.2884C16.7228 15.6571 16.7052 16.2372 16.3366 16.5842L12.4408 20.2508C12.0878 20.5831 11.5372 20.5831 11.1843 20.2508L7.28842 16.5842C6.91976 16.2372 6.90218 15.6571 7.24915 15.2884C7.59613 14.9198 8.17626 14.9022 8.54492 15.2491Z"
    fill="#E6E6E6"
  />
</svg>
