<svg
  width="15"
  height="16"
  viewBox="0 0 15 16"
  fill="none"
  xmlns="http://www.w3.org/2000/svg"
>
  <path
    d="M7.59902 2.52042C4.03781 2.52042 1.15088 5.40735 1.15088 8.96855C1.15088 12.5298 4.03781 15.4167 7.59902 15.4167C11.1602 15.4167 14.0472 12.5298 14.0472 8.96855C14.0472 5.40735 11.1602 2.52042 7.59902 2.52042ZM11.4571 12.8266C10.5645 13.7192 9.39004 14.2747 8.13382 14.3984C6.87759 14.5221 5.61733 14.2065 4.56777 13.5052C3.5182 12.8039 2.74427 11.7604 2.37784 10.5524C2.01141 9.34446 2.07516 8.04683 2.55822 6.88061C3.04128 5.7144 3.91376 4.75176 5.02701 4.15671C6.14026 3.56166 7.42539 3.37103 8.66344 3.61729C9.90149 3.86355 11.0158 4.53147 11.8166 5.50724C12.6174 6.48301 13.0551 7.70625 13.0551 8.96855C13.0571 9.68535 12.9169 10.3954 12.6425 11.0577C12.3682 11.7199 11.9653 12.3211 11.4571 12.8266Z"
    fill="#E6E6E6"
  />
  <path
    d="M8.09554 5.00045H7.10352V9.20693L9.76973 11.3399L10.3894 10.5653L8.09554 8.73013V5.00045Z"
    fill="#E6E6E6"
  />
  <path
    d="M5.08712 0.374999L0.375 3.59904L0.935191 4.41779L5.64732 1.19375L5.08712 0.374999Z"
    fill="#E6E6E6"
  />
  <path
    d="M10.1115 0.375015L9.55127 1.19376L14.2633 4.41788L14.8235 3.59914L10.1115 0.375015Z"
    fill="#E6E6E6"
  />
</svg>
