<svg
  width="19"
  height="17"
  viewBox="0 0 19 17"
  fill="none"
  xmlns="http://www.w3.org/2000/svg"
>
  <path
    d="M18.05 0H0.95C0.698134 0.00029333 0.456669 0.100476 0.278573 0.278572C0.100477 0.456668 0.00029333 0.698134 0 0.95V15.5167C0.00029333 15.7685 0.100477 16.01 0.278573 16.1881C0.456669 16.3662 0.698134 16.4664 0.95 16.4667H4.43333V14.1383C4.4334 13.9972 4.47117 13.8586 4.54274 13.737C4.61431 13.6154 4.71707 13.5151 4.84041 13.4465L8.48124 11.4228L7.28333 8.42804V6.01667C7.28333 5.42877 7.51687 4.86495 7.93258 4.44925C8.34829 4.03354 8.9121 3.8 9.5 3.8C10.0879 3.8 10.6517 4.03354 11.0674 4.44925C11.4831 4.86495 11.7167 5.42877 11.7167 6.01667V8.42804L10.5188 11.4227L14.1596 13.4465C14.2829 13.5151 14.3857 13.6154 14.4573 13.737C14.5288 13.8586 14.5666 13.9972 14.5667 14.1383V16.4667H18.05C18.3019 16.4664 18.5433 16.3662 18.7214 16.1881C18.8995 16.01 18.9997 15.7685 19 15.5167V0.95C18.9997 0.698134 18.8995 0.456668 18.7214 0.278572C18.5433 0.100476 18.3019 0.00029333 18.05 0ZM17.7333 15.2H15.8333V14.1383C15.8332 13.7713 15.735 13.411 15.549 13.0947C15.3629 12.7784 15.0957 12.5176 14.775 12.3392L12.1091 10.8577L12.9833 8.67196V6.01667C12.9833 5.09283 12.6163 4.20683 11.9631 3.55358C11.3098 2.90033 10.4238 2.53333 9.5 2.53333C8.57616 2.53333 7.69016 2.90033 7.03691 3.55358C6.38366 4.20683 6.01667 5.09283 6.01667 6.01667V8.67196L6.89086 10.8577L4.22505 12.3394C3.90436 12.5178 3.63716 12.7786 3.45109 13.0948C3.26501 13.4111 3.16682 13.7713 3.16667 14.1383V15.2H1.26667V1.26667H17.7333V15.2Z"
    fill="#E6E6E6"
  />
</svg>
