<svg
  width="161"
  height="127"
  viewBox="0 0 161 127"
  fill="none"
  xmlns="http://www.w3.org/2000/svg"
>
  <path
    d="M133.881 59.3709C131.037 59.3709 128.296 59.8213 125.723 60.6513V49.4238C125.723 48.5101 125.292 47.7187 124.648 47.1718C124.616 47.1332 124.603 47.0882 124.558 47.0496L107.431 33.7695V17.8515C107.431 16.1915 106.086 14.8467 104.426 14.8467H83.0324L64.6952 0.627327C63.6142 -0.209109 62.0958 -0.209109 61.0148 0.627327L42.6776 14.8467H21.297C19.637 14.8467 18.2922 16.1915 18.2922 17.8515V33.7631L1.16458 47.056C1.03589 47.1589 0.977988 47.2812 0.945817 47.4163C0.366746 48.0468 0 48.8961 0 49.7583V123.995C0 125.655 1.34474 127 3.00475 127H122.725C124.385 127 125.729 125.655 125.729 123.995V111.745C128.303 112.568 131.044 113.025 133.888 113.025C148.68 113.025 160.712 100.993 160.712 86.2012C160.712 71.4092 148.673 59.3709 133.881 59.3709ZM18.2922 57.4793L11.7873 52.4285H18.2922V57.4793ZM48.5005 88.5239L6.00947 117.259V55.5555L48.5005 88.5239ZM53.4933 92.3973L61.0213 98.2395C62.1086 99.0759 63.6206 99.0759 64.708 98.2395L74.6874 90.4992L114.843 120.991H11.2211L53.4933 92.3973ZM107.431 52.4285H113.948L107.431 57.4857V52.4285ZM113.942 46.419H107.437V41.3747L113.942 46.419ZM62.855 6.79767L73.2268 14.8403H52.4832L62.855 6.79767ZM24.3017 20.8562H101.428V62.1376L62.8679 92.0627L24.3081 62.1376V20.8562H24.3017ZM18.2922 46.419H11.7745L18.2922 41.3618V46.419ZM119.713 117.143L79.5966 86.6838L119.713 55.5683V63.463C112.128 68.2049 107.057 76.6144 107.057 86.2012C107.057 95.7881 112.128 104.191 119.713 108.939V117.143ZM133.881 107.016C122.403 107.016 113.067 97.6797 113.067 86.2012C113.067 74.7227 122.403 65.3868 133.881 65.3868C145.36 65.3868 154.696 74.7227 154.696 86.2012C154.696 97.6797 145.36 107.016 133.881 107.016Z"
    fill="#323B4B"
  />
  <path
    d="M36.8296 36.2402H88.8881C90.5481 36.2402 91.8929 34.8954 91.8929 33.2354C91.8929 31.5754 90.5481 30.2307 88.8881 30.2307H36.8296C35.1696 30.2307 33.8249 31.5754 33.8249 33.2354C33.8249 34.8954 35.1761 36.2402 36.8296 36.2402Z"
    fill="#323B4B"
  />
  <path
    d="M91.8993 49.4237C91.8993 47.7637 90.5546 46.4189 88.8946 46.4189H36.8296C35.1696 46.4189 33.8249 47.7637 33.8249 49.4237C33.8249 51.0837 35.1696 52.4284 36.8296 52.4284H88.8881C90.5546 52.4284 91.8993 51.0901 91.8993 49.4237Z"
    fill="#323B4B"
  />
  <path
    d="M82.4853 65.6185C82.4853 63.9585 81.1405 62.6138 79.4805 62.6138H46.2483C44.5883 62.6138 43.2435 63.9585 43.2435 65.6185C43.2435 67.2785 44.5883 68.6232 46.2483 68.6232H79.4805C81.1405 68.6232 82.4853 67.2849 82.4853 65.6185Z"
    fill="#323B4B"
  />
  <path
    d="M149.619 87.3464C149.922 86.613 149.922 85.783 149.619 85.0495C149.465 84.6827 149.246 84.3481 148.969 84.0715L138.9 74.002C137.729 72.831 135.824 72.831 134.653 74.002C133.482 75.173 133.482 77.0776 134.653 78.2486L139.595 83.19H120.923C119.263 83.19 117.918 84.5347 117.918 86.1947C117.918 87.8547 119.263 89.1994 120.923 89.1994H139.595L134.653 94.1409C133.482 95.3119 133.482 97.2164 134.653 98.3874C135.824 99.5584 137.729 99.5584 138.9 98.3874L148.969 88.318C149.246 88.0477 149.465 87.7132 149.619 87.3464Z"
    fill="#323B4B"
  />
</svg>
