<svg
  width="24"
  height="24"
  viewBox="0 0 24 24"
  fill="none"
  xmlns="http://www.w3.org/2000/svg"
>
  <path
    d="M23.9913 10.8C23.9372 9.44379 23.6164 8.11156 23.0472 6.87939C22.4276 5.5348 21.551 4.32439 20.4667 3.31634C18.1854 1.17775 15.1786 0 12 0C9.62664 -7.36762e-06 7.30656 0.703775 5.33317 2.02235C3.35978 3.34092 1.8217 5.21507 0.913451 7.40778C0.00519837 9.60049 -0.232441 12.0133 0.230584 14.3411C0.693609 16.6688 1.8365 18.807 3.51474 20.4853C5.75018 22.7207 8.77745 23.9837 11.9388 23.9998C15.1001 24.0159 18.1401 22.7839 20.3983 20.5714L19.2783 19.4286C17.3379 21.3385 14.7227 22.4062 12 22.4C6.26548 22.4 1.60004 17.7345 1.60004 12C1.60004 6.26544 6.26548 1.6 12 1.6C17.6374 1.6 22.4 5.99624 22.4 11.2V13C22.4 14.4336 21.1439 15.6 19.6 15.6C18.0561 15.6 16.8 14.4336 16.8 13V7.19999H15.2V8.53754C14.4576 7.84792 13.5231 7.4002 12.5204 7.25372C11.5177 7.10723 10.4942 7.2689 9.58546 7.7173C8.67675 8.16569 7.92574 8.87963 7.43197 9.76452C6.9382 10.6494 6.72499 11.6634 6.82059 12.6722C6.91618 13.681 7.31608 14.637 7.96727 15.4134C8.61846 16.1897 9.49021 16.7499 10.467 17.0196C11.4437 17.2894 12.4794 17.2559 13.4367 16.9237C14.394 16.5915 15.2278 15.9762 15.8275 15.1594C16.5978 16.381 18.0005 17.2 19.6 17.2C22.0262 17.2 24 15.3159 24 13V10.8H23.9913ZM11.8 15.6C11.1276 15.6 10.4702 15.4006 9.91109 15.027C9.35196 14.6534 8.91617 14.1224 8.65884 13.5011C8.4015 12.8798 8.33417 12.1962 8.46536 11.5367C8.59655 10.8771 8.92037 10.2713 9.39586 9.79582C9.87136 9.32032 10.4772 8.9965 11.1367 8.86531C11.7963 8.73412 12.4799 8.80146 13.1011 9.05879C13.7224 9.31613 14.2534 9.75192 14.627 10.311C15.0006 10.8702 15.2 11.5275 15.2 12.2C15.199 13.1014 14.8405 13.9656 14.2031 14.603C13.5657 15.2404 12.7014 15.599 11.8 15.6Z"
    fill="#6D7275"
  />
</svg>
