<svg
  width="19"
  height="19"
  viewBox="0 0 19 19"
  fill="none"
  xmlns="http://www.w3.org/2000/svg"
>
  <path
    d="M18.5617 7.72853L10.1395 0.362017C9.86567 0.122537 9.50511 -0.00706634 9.13315 0.000297455C8.76118 0.00766125 8.40661 0.151422 8.14354 0.40153L0.397516 7.76575L0 8.14363V19H7.46429V12.2262H11.5357V19H19V8.11189L18.5617 7.72853ZM9.16232 1.29026C9.17428 1.29026 9.16691 1.29272 9.16177 1.29752C9.15647 1.29272 9.15037 1.29026 9.16232 1.29026ZM17.6429 17.7098H12.8929V12.2262C12.8929 11.884 12.7499 11.5559 12.4954 11.3139C12.2408 11.0719 11.8957 10.936 11.5357 10.936H7.46429C7.10435 10.936 6.75915 11.0719 6.50464 11.3139C6.25013 11.5559 6.10714 11.884 6.10714 12.2262V17.7098H1.35714V8.67807L9.16232 1.31385C9.16288 1.31337 9.16292 1.31292 9.16334 1.31244L17.6429 8.67807V17.7098Z"
    fill="#E6E6E6"
  />
</svg>
