<svg
  width="19"
  height="22"
  viewBox="0 0 19 22"
  fill="none"
  xmlns="http://www.w3.org/2000/svg"
>
  <path
    d="M0.747476 16.6541L8.75248 21.2757C8.97987 21.4066 9.23761 21.4754 9.49995 21.4754C9.7623 21.4754 10.02 21.4066 10.2474 21.2757L18.2525 16.654C18.4795 16.5225 18.668 16.3337 18.7991 16.1065C18.9303 15.8793 18.9996 15.6217 19 15.3594V6.11603C18.9996 5.8537 18.9303 5.59607 18.7991 5.36888C18.668 5.14169 18.4795 4.9529 18.2525 4.82136L10.2475 0.199666C10.0201 0.0688488 9.76234 0 9.5 0C9.23766 0 8.97992 0.0688488 8.75252 0.199666L0.747476 4.82136C0.520499 4.95289 0.332012 5.14169 0.200845 5.36888C0.0696776 5.59607 0.000423056 5.8537 0 6.11603V15.3594C0.000423056 15.6217 0.0696776 15.8794 0.200845 16.1066C0.332012 16.3338 0.520499 16.5226 0.747476 16.6541ZM10.2474 1.92592L17.505 6.11603V14.4026L10.2474 10.3005V1.92592ZM9.49757 11.5939L16.8394 15.7437L9.50014 19.981L2.15815 15.7423L9.49757 11.5939ZM1.49495 6.11603L8.75248 1.92592V10.2976L1.49495 14.3999V6.11603Z"
    fill="#6D7275"
  />
</svg>
