<svg
  width="19"
  height="19"
  viewBox="0 0 19 19"
  fill="none"
  xmlns="http://www.w3.org/2000/svg"
>
  <path
    d="M17.4305 1.5694C15.338 -0.523133 11.9331 -0.523133 9.84063 1.5694L6.04565 5.36438L6.93865 6.25729L10.7335 2.46231C11.5032 1.69265 12.5471 1.26026 13.6356 1.26026C14.7241 1.26027 15.7679 1.69266 16.5376 2.46233C17.3073 3.232 17.7397 4.2759 17.7397 5.36437C17.7397 6.45284 17.3073 7.49673 16.5376 8.2664L12.7426 12.0614L13.6354 12.9543L17.4304 9.15931C19.5232 7.06678 19.5232 3.66197 17.4305 1.5694Z"
    fill="#6D7275"
  />
  <path
    d="M8.27795 16.526C7.50829 17.2957 6.4644 17.7281 5.37593 17.7281C4.28746 17.7281 3.24357 17.2957 2.47391 16.526C1.70425 15.7564 1.27185 14.7125 1.27185 13.624C1.27185 12.5355 1.70425 11.4916 2.47391 10.722L6.04569 7.1502L5.15277 6.25729L1.58095 9.82906C1.08065 10.327 0.683481 10.9187 0.412197 11.5704C0.140913 12.222 0.000841737 12.9208 3.78209e-06 13.6267C-0.000834173 14.3325 0.137578 15.0316 0.407314 15.6839C0.67705 16.3362 1.07281 16.9289 1.57193 17.428C2.07106 17.9271 2.66373 18.3229 3.31603 18.5926C3.96832 18.8623 4.66742 19.0007 5.37328 18.9999C6.07914 18.9991 6.77791 18.859 7.42956 18.5877C8.08121 18.3164 8.67294 17.9192 9.17087 17.4189L12.7426 13.8472L11.8497 12.9543L8.27795 16.526Z"
    fill="#6D7275"
  />
  <path
    d="M13.4122 4.69464L4.48291 13.624L5.37584 14.5169L14.3052 5.58757L13.4122 4.69464Z"
    fill="#6D7275"
  />
</svg>
