<svg
  width="121"
  height="12"
  viewBox="0 0 121 12"
  fill="none"
  xmlns="http://www.w3.org/2000/svg"
>
  <path
    d="M0.986328 6.40758V6.37755C0.986328 3.34022 3.57758 0.825608 7.18454 0.825608C9.40829 0.825608 10.739 1.51538 11.9647 2.52751L11.0192 3.4167C9.98633 2.55801 8.83079 1.94472 7.16686 1.94472C4.45347 1.94472 2.42204 3.87702 2.42204 6.34611V6.37755C2.42204 8.86119 4.47061 10.809 7.16686 10.809C8.84794 10.809 9.95097 10.2417 11.1242 9.26003L12.0349 10.0422C10.7562 11.1773 9.35579 11.929 7.13204 11.929C3.59526 11.929 0.986328 9.48995 0.986328 6.40758Z"
    fill="white"
  />
  <path
    d="M27.0752 7.80338L24.2916 2.34341L21.4898 7.80338H27.0752ZM23.6611 0.932429H24.957L30.5423 11.7444H29.0536L27.6184 8.90795H20.9472L19.4938 11.7444H18.0752L23.6611 0.932429Z"
    fill="white"
  />
  <path
    d="M42.7807 6.48414C44.6198 6.48414 45.9334 5.65595 45.9334 4.27547V4.24544C45.9334 2.92597 44.7778 2.12874 42.7984 2.12874H39.0162V6.48414H42.7807ZM37.6335 1.00963H42.9034C44.4093 1.00963 45.6173 1.408 46.3877 2.08276C46.9839 2.60407 47.3332 3.35578 47.3332 4.19899V4.22996C47.3332 6.00881 45.9334 7.05144 44.0064 7.35832L47.7709 11.7447H46.0732L42.5187 7.57323H39.0162V11.7447H37.6335V1.00963Z"
    fill="white"
  />
  <path
    d="M54.9666 1.00938H56.3498V10.6253H63.2487V11.7444H54.9666V1.00938Z"
    fill="white"
  />
  <path d="M70.6028 1.0094H71.986V11.7449H70.6028V1.0094Z" fill="white" />
  <path
    d="M79.4446 10.1803L80.3033 9.29062C81.5805 10.3037 82.8062 10.809 84.5044 10.809C86.1512 10.809 87.236 10.0423 87.236 8.98421V8.95324C87.236 7.95706 86.6232 7.38929 84.0501 6.91396C81.2307 6.37763 79.9348 5.57947 79.9348 3.81563V3.78513C79.9348 2.09778 81.633 0.855724 83.9628 0.855724C85.7489 0.855724 87.026 1.30055 88.2699 2.17473L87.4648 3.11038C86.3264 2.2972 85.1885 1.94481 83.9269 1.94481C82.3342 1.94481 81.318 2.71153 81.318 3.67768V3.70865C81.318 4.72078 81.9485 5.28808 84.6448 5.79391C87.3769 6.31569 88.6369 7.18987 88.6369 8.83077V8.86127C88.6369 10.7016 86.8867 11.8981 84.453 11.8981C82.5094 11.8981 80.9151 11.3308 79.4446 10.1803Z"
    fill="white"
  />
  <path
    d="M96.1309 1.00938H97.5141V10.6253H104.413V11.7444H96.1309V1.00938Z"
    fill="white"
  />
  <path
    d="M111.644 1.00938H120.504V2.11348H113.027V5.77911H119.716V6.88321H113.027V10.6403H120.592V11.7444H111.644V1.00938Z"
    fill="white"
  />
</svg>
