<svg
  width="18"
  height="26"
  viewBox="0 0 18 26"
  fill="none"
  xmlns="http://www.w3.org/2000/svg"
>
  <path
    d="M15.8573 9.85714V6.85714C15.8573 5.03852 15.1348 3.29437 13.8489 2.00841C12.5629 0.722447 10.8187 0 9.00012 0C7.18149 0 5.43735 0.722447 4.15139 2.00841C2.86543 3.29437 2.14298 5.03852 2.14298 6.85714V9.85714H0.00012207V16.7143C0.00012207 21.6769 4.03748 25.7143 9.00012 25.7143C13.9628 25.7143 18.0001 21.6769 18.0001 16.7143V9.85714H15.8573ZM3.85726 6.85714C3.85726 5.49317 4.3991 4.18507 5.36357 3.22059C6.32805 2.25612 7.63615 1.71429 9.00012 1.71429C10.3641 1.71429 11.6722 2.25612 12.6367 3.22059C13.6011 4.18507 14.143 5.49317 14.143 6.85714V9.85714H3.85726V6.85714ZM16.2858 16.7143C16.2858 20.7316 13.0174 24 9.00012 24C4.9828 24 1.71441 20.7316 1.71441 16.7143V11.5714H16.2858V16.7143Z"
    fill="#6D7275"
  />
</svg>
