<svg width="56" height="70" viewBox="0 0 56 70" fill="none" xmlns="http://www.w3.org/2000/svg">
  <path
    d="M34.9683 8H21.0329C20.3877 8 19.8716 7.48387 19.8716 6.83871C19.8716 3.09677 22.9683 0 26.7103 0H29.1619C32.9039 0 36.0006 3.09677 36.0006 6.83871C36.0006 7.48387 35.4845 8 34.9683 8ZM22.3232 5.67742H33.678C33.1619 3.74194 31.3554 2.19355 29.2909 2.19355H26.8393C24.6458 2.19355 22.8393 3.74194 22.3232 5.67742Z"
    fill="#323B4B" />
  <path
    d="M54.8387 69.1619H1.16129C0.516131 69.1619 0 68.6458 0 68.0006C0 67.3554 0.516131 66.8393 1.16129 66.8393H54.8387C55.4839 66.8393 56 67.3554 56 68.0006C55.871 68.7748 55.3548 69.1619 54.8387 69.1619Z"
    fill="#323B4B" />
  <path
    d="M47.8715 12.3864H8.12955C7.48439 12.3864 6.96826 11.8703 6.96826 11.2251V9.93482C6.96826 7.61224 8.77471 5.80579 11.0973 5.80579H44.7747C47.0973 5.80579 48.9037 7.61224 48.9037 9.93482V11.3542C49.0328 11.8703 48.5166 12.3864 47.8715 12.3864ZM9.16179 10.1929H46.7102V9.93482C46.7102 8.90256 45.807 7.99934 44.7747 7.99934H11.0973C10.065 7.99934 9.16179 8.90256 9.16179 9.93482V10.1929Z"
    fill="#323B4B" />
  <path
    d="M37.0388 60.3874C28.9097 60.3874 22.3291 53.8068 22.3291 45.6778C22.3291 37.5487 28.9097 30.9681 37.0388 30.9681C45.1678 30.9681 51.7485 37.5487 51.7485 45.6778C51.7485 53.8068 45.1678 60.3874 37.0388 60.3874ZM37.0388 33.1616C30.2001 33.1616 24.5227 38.71 24.5227 45.6778C24.5227 52.6455 30.071 58.1939 37.0388 58.1939C43.8775 58.1939 49.5549 52.6455 49.5549 45.6778C49.5549 38.71 44.0065 33.1616 37.0388 33.1616Z"
    fill="#323B4B" />
  <path
    d="M38.7064 69.162H17.1581C14.5774 69.162 12.5129 67.0975 12.3839 64.6459L10.3193 16.3878C10.3193 16.1297 10.4484 15.7426 10.5774 15.6136C10.8355 15.3555 11.0936 15.2265 11.3516 15.2265H44.5129C44.771 15.2265 45.1581 15.3555 45.2871 15.6136C45.5452 15.8717 45.5451 16.1297 45.5451 16.3878L44.771 33.8071C44.771 34.1942 44.5129 34.5813 44.2548 34.7104C43.8677 34.8394 43.4806 34.8394 43.2226 34.7104C41.2871 33.6781 39.2226 33.033 37.029 33.033C30.1903 33.033 24.5129 38.5813 24.5129 45.5491C24.5129 52.5168 30.0613 58.0652 37.029 58.0652C38.8355 58.0652 40.6419 57.6781 42.1903 56.9039C42.5774 56.7749 42.9645 56.7749 43.2226 57.033C43.4806 57.291 43.7387 57.6781 43.7387 58.0652L43.6097 64.6459C43.4807 67.2265 41.2871 69.162 38.7064 69.162ZM12.5129 17.42L14.5774 64.5168C14.5774 65.9362 15.7387 66.9684 17.1581 66.9684H38.7064C40.1258 66.9684 41.1581 65.9362 41.2871 64.5168L41.5452 59.6136C40.1258 60.1297 38.5774 60.3878 37.029 60.3878C28.9 60.3878 22.3193 53.8071 22.3193 45.6781C22.3193 37.5491 28.9 30.9684 37.029 30.9684C38.9645 30.9684 40.9 31.3555 42.7065 32.1297L43.3516 17.5491H12.5129V17.42Z"
    fill="#323B4B" />
  <path
    d="M37.031 64.9038C26.4503 64.9038 17.8052 56.2587 17.8052 45.678C17.8052 35.0974 26.4503 26.4522 37.031 26.4522C39.6116 26.4522 42.0632 26.9683 44.3858 27.8716C44.7729 28.0006 45.031 28.5167 45.031 28.9038L44.7729 33.9361C44.7729 34.3232 44.5148 34.7103 44.2568 34.8393C43.8697 34.9683 43.4826 34.9683 43.2245 34.8393C41.289 33.807 39.2245 33.1619 37.031 33.1619C30.1922 33.1619 24.5149 38.7103 24.5149 45.678C24.5149 52.6458 30.0632 58.1941 37.031 58.1941C38.8374 58.1941 40.6439 57.807 42.1923 57.0329C42.5794 56.9038 42.9664 56.9038 43.2245 57.1619C43.4826 57.4199 43.7406 57.807 43.7406 58.1941L43.4826 63.2264C43.4826 63.7425 43.0955 64.1296 42.7084 64.2587C41.031 64.6458 38.9664 64.9038 37.031 64.9038ZM37.031 28.5167C27.6116 28.5167 19.9987 36.1296 19.9987 45.549C19.9987 54.9683 27.6116 62.5812 37.031 62.5812C38.5793 62.5812 39.9987 62.3232 41.4181 62.0651L41.5471 59.6135C40.1278 60.1296 38.5793 60.3877 37.031 60.3877C28.9019 60.3877 22.3213 53.807 22.3213 45.678C22.3213 37.549 28.9019 30.9683 37.031 30.9683C38.9664 30.9683 40.902 31.3554 42.7084 32.1296L42.8374 29.678C41.031 28.9038 39.0955 28.5167 37.031 28.5167Z"
    fill="#323B4B" />
  <path
    d="M36.125 53.1619C35.8669 53.1619 35.6089 53.0329 35.3508 52.9038L29.8024 47.8716C29.2863 47.4845 29.2863 46.7103 29.6734 46.3232C30.0605 45.8071 30.8347 45.807 31.2218 46.1941L35.8669 50.3232L43.0927 39.8716C43.4798 39.3554 44.125 39.2264 44.6411 39.6135C45.1572 40.0006 45.2863 40.6458 44.8992 41.1619L36.8992 52.6458C36.7702 52.9038 36.3831 53.0329 36.125 53.1619C36.254 53.1619 36.254 53.1619 36.125 53.1619Z"
    fill="#323B4B" />
</svg>
