<svg
  width="19"
  height="19"
  viewBox="0 0 19 19"
  fill="none"
  xmlns="http://www.w3.org/2000/svg"
>
  <path
    d="M18.719 9.85022L9.24226 0.3734C9.12417 0.254653 8.98369 0.160508 8.82896 0.096415C8.67424 0.0323217 8.50834 -0.00044733 8.34086 4.61179e-06H1.91219C1.40523 0.000584515 0.919189 0.202233 0.560709 0.560713C0.202229 0.919193 0.000579903 1.40523 0 1.9122V8.32912C0.000278897 8.50318 0.0360747 8.67536 0.105197 8.83511C0.174319 8.99486 0.275313 9.13883 0.401999 9.2582L10.4833 18.7285C10.6599 18.8955 10.8939 18.9884 11.137 18.9879C11.1489 18.9879 11.1608 18.9876 11.1729 18.9872C11.2993 18.983 11.4235 18.9536 11.5384 18.9007C11.6533 18.8477 11.7564 18.7724 11.8417 18.6791L18.7467 11.1735C18.9142 10.9923 19.0049 10.7531 18.9998 10.5063C18.9946 10.2595 18.894 10.0243 18.719 9.85022ZM11.1214 17.579L1.27479 8.32912V1.9122C1.275 1.74321 1.34221 1.5812 1.46171 1.46171C1.5812 1.34222 1.74321 1.275 1.91219 1.2748H8.34086L17.6015 10.5355L11.1214 17.579Z"
    fill="#E6E6E6"
  />
  <path
    d="M5.25855 3.18699C4.84884 3.18699 4.44833 3.30849 4.10767 3.53611C3.767 3.76373 3.50149 4.08726 3.3447 4.46579C3.18791 4.84431 3.14689 5.26083 3.22682 5.66267C3.30675 6.06451 3.50404 6.43362 3.79375 6.72334C4.08346 7.01305 4.45258 7.21034 4.85442 7.29027C5.25626 7.3702 5.67277 7.32918 6.0513 7.17239C6.42982 7.0156 6.75335 6.75008 6.98098 6.40942C7.2086 6.06876 7.3301 5.66825 7.3301 5.25853C7.32947 4.70932 7.11102 4.18277 6.72267 3.79442C6.33431 3.40607 5.80777 3.18761 5.25855 3.18699ZM5.25855 6.05528C5.10097 6.05528 4.94693 6.00855 4.81591 5.92101C4.68488 5.83346 4.58276 5.70902 4.52246 5.56344C4.46215 5.41785 4.44637 5.25765 4.47712 5.1031C4.50786 4.94854 4.58374 4.80658 4.69517 4.69515C4.8066 4.58372 4.94856 4.50784 5.10312 4.4771C5.25767 4.44635 5.41787 4.46213 5.56346 4.52244C5.70904 4.58274 5.83348 4.68486 5.92103 4.81589C6.00857 4.94691 6.0553 5.10095 6.0553 5.25853C6.05506 5.46977 5.97104 5.67228 5.82167 5.82165C5.6723 5.97102 5.46979 6.05504 5.25855 6.05528Z"
    fill="#E6E6E6"
  />
</svg>
