<svg
  width="30"
  height="24"
  viewBox="0 0 30 24"
  fill="none"
  xmlns="http://www.w3.org/2000/svg"
>
  <g clip-path="url(#clip0_1187_2234)">
    <path
      d="M29.7187 22.0781L1.68747 0.164531C1.61058 0.102974 1.52233 0.0571636 1.42774 0.0297147C1.33315 0.00226593 1.23408 -0.00628338 1.13619 0.00455496C1.03829 0.0153933 0.943494 0.045407 0.8572 0.0928825C0.770906 0.140358 0.694808 0.204365 0.633251 0.28125L0.164501 0.866719C0.102799 0.94363 0.0568693 1.03195 0.0293387 1.12663C0.00180819 1.22132 -0.00678236 1.3205 0.00405866 1.4185C0.0148997 1.51651 0.0449595 1.61141 0.092518 1.69778C0.140076 1.78416 0.2042 1.86031 0.28122 1.92188L28.3125 23.8355C28.3894 23.897 28.4776 23.9428 28.5722 23.9703C28.6668 23.9977 28.7659 24.0063 28.8638 23.9954C28.9616 23.9846 29.0564 23.9546 29.1427 23.9071C29.229 23.8596 29.3051 23.7956 29.3667 23.7188L29.8354 23.1333C29.8971 23.0564 29.9431 22.968 29.9706 22.8734C29.9981 22.7787 30.0067 22.6795 29.9959 22.5815C29.985 22.4835 29.955 22.3886 29.9074 22.3022C29.8599 22.2158 29.7957 22.1397 29.7187 22.0781ZM13.912 6.86578L20.2303 11.8055C20.1262 8.99578 17.835 6.75 15 6.75C14.6343 6.75068 14.2696 6.78949 13.912 6.86578ZM16.0879 17.1347L9.76966 12.195C9.87419 15.0042 12.1654 17.25 15 17.25C15.3656 17.2492 15.7302 17.2106 16.0879 17.1347ZM15 5.25C19.6242 5.25 23.8636 7.82812 26.1529 12C25.5917 13.0267 24.8983 13.9755 24.0904 14.8219L25.8595 16.2047C26.8444 15.151 27.6789 13.9662 28.3392 12.6839C28.4464 12.4718 28.5023 12.2374 28.5023 11.9998C28.5023 11.7621 28.4464 11.5277 28.3392 11.3156C25.7948 6.35578 20.7623 3 15 3C13.2797 3 11.6386 3.32813 10.0954 3.88172L12.2709 5.58281C13.1587 5.38125 14.0681 5.25 15 5.25ZM15 18.75C10.3758 18.75 6.13684 16.1719 3.847 12C4.40893 10.9733 5.10314 10.0247 5.91185 9.17859L4.14278 7.79578C3.15801 8.84929 2.32369 10.034 1.66356 11.3161C1.55633 11.5282 1.50046 11.7626 1.50046 12.0002C1.50046 12.2379 1.55633 12.4723 1.66356 12.6844C4.2056 17.6442 9.23809 21 15 21C16.7203 21 18.3614 20.6695 19.9045 20.1183L17.729 18.4177C16.8412 18.6187 15.9323 18.75 15 18.75Z"
      fill="#6D7275"
    />
  </g>
  <defs>
    <clipPath id="clip0_1187_2234">
      <rect width="30" height="24" fill="white" />
    </clipPath>
  </defs>
</svg>
