<svg
  width="21"
  height="12"
  viewBox="0 0 21 12"
  fill="none"
  xmlns="http://www.w3.org/2000/svg"
>
  <path
    d="M21 5.89706V5.59978L20.9724 5.39109C20.7401 3.13162 18.9591 1.34794 16.7035 1.11169L16.4948 1.10119H16.4502L16.2146 1.09462C14.9395 1.08806 13.7196 1.59338 12.8172 2.49244L11.2002 4.11928L12.3795 5.30906L13.5621 4.12978H13.5516L13.9893 3.68222C14.5773 3.09422 15.3733 2.76281 16.2041 2.76609H16.3787L16.5191 2.77266C17.9957 2.92294 19.1645 4.08844 19.3187 5.565V6.20419C19.2058 7.27716 18.543 8.21756 17.5685 8.68875L17.5448 8.70581L17.4563 8.73994L17.3946 8.7675L17.3434 8.79112L17.2476 8.82853H17.22C16.0919 9.21834 14.8411 8.93091 13.9899 8.09353L13.5522 7.65581L10.6057 4.71319L5.89575 0L0 5.89575L5.89575 11.7915L7.06781 10.6122L10.0177 7.66237L8.84559 6.48309L5.89575 9.42966L2.36184 5.89575L5.89575 2.36184L7.66631 4.12912L12.8172 9.28331C14.1127 10.5787 16.0335 11.0197 17.7627 10.4212L17.8073 10.4107L17.9478 10.3491L18.0331 10.3149L18.1289 10.2808L18.2693 10.2191L18.314 10.1916C19.7971 9.46706 20.8025 8.02791 20.9731 6.384V6.37744L20.9902 6.16547V5.89575L21 5.89706Z"
    fill="#6D7275"
  />
</svg>
