<svg
  width="19"
  height="18"
  viewBox="0 0 19 18"
  fill="none"
  xmlns="http://www.w3.org/2000/svg"
>
  <path
    d="M18.05 17.1H0.95C0.698134 17.0997 0.456669 16.9995 0.278573 16.8214C0.100477 16.6433 0.00029333 16.4019 0 16.15V0.950001C0.00029333 0.698136 0.100477 0.45667 0.278573 0.278574C0.456669 0.100478 0.698134 0.000294874 0.95 1.5435e-06H8.3389C8.52654 -0.000337075 8.71005 0.0550467 8.86617 0.159131C9.02229 0.263216 9.14398 0.411313 9.21583 0.584647L10.0278 2.53333H18.05C18.3019 2.53363 18.5433 2.63381 18.7214 2.81191C18.8995 2.99 18.9997 3.23147 19 3.48333V16.15C18.9997 16.4019 18.8995 16.6433 18.7214 16.8214C18.5433 16.9995 18.3019 17.0997 18.05 17.1ZM1.26667 15.8333H17.7333V3.8H9.18333L8.12776 1.26667H1.26667V15.8333Z"
    fill="#6D7275"
  />
</svg>
